<?xml version="1.0" encoding="utf-8"?>
<!-- Generator: Adobe Illustrator 25.0.1, SVG Export Plug-In . SVG Version: 6.00 Build 0)  -->
<svg version="1.1" id="Layer_1" xmlns="http://www.w3.org/2000/svg" xmlns:xlink="http://www.w3.org/1999/xlink" x="0px" y="0px"
	 viewBox="0 0 178 172.6" style="enable-background:new 0 0 178 172.6;" xml:space="preserve">
<g>
	<path d="M143.4,71.3c0-2.7-0.2-5.1,0.1-7.4c0.1-0.9,1.5-1.9,2.5-2.3c5.6-2.2,10.5-5.2,14-10.2c8.2-11.7,1.8-28.3-11.6-30.4
		c-11.7-1.8-23.6,5.5-28.6,17.3c-6.7,16.2-10.6,33.2-13.5,50.4c-4.6,27.5-8.5,55-12.7,82.6c-0.1,0.4-0.2,0.7-0.3,1.2
		c-2.6,0-5.2,0-8,0c-1-7.5-1.9-14.9-2.9-22.4c-4.3-31.2-8.7-62.4-16.8-93c-2-7.7-4.8-15.4-8.3-22.5C52,24.3,39.6,19,29.2,21.4
		c-14.4,3.3-16.8,20.5-10.3,30c3.3,4.8,8,8,13.4,9.9c2.6,0.9,3.8,2.1,3.4,4.8c-0.2,1.6,0,3.3,0,5c-16-1.6-30.2-13.5-32-30.1
		C2.5,30.2,4.2,20.2,11,11.4c9.4-11.9,24-14,36.5-8.7C62.9,9.3,71.4,22,75.1,37.6c3.6,15.1,6.1,30.5,8.4,45.9
		c2.4,15.8,3.9,31.8,6.1,47.7c0.8-6.8,1.5-13.5,2.3-20.3c3-24.6,5.5-49.3,11.9-73.3c3.5-13.1,10-24.5,21.9-31.8
		C148-8.1,173,4.5,175.5,29.3c1.2,12-1.2,22.7-9.9,31.4C159.6,66.8,152.2,69.8,143.4,71.3z"/>
</g>
</svg>
