<svg data-name="Layer 2" xmlns="http://www.w3.org/2000/svg" viewBox="0 0 993.33 997"><defs><clipPath id="a" transform="translate(-.83 -1)"><path fill="none" d="M-1 1h997v997H-1z"/></clipPath><clipPath id="b" transform="translate(-.83 -1)"><path fill="none" d="M457.08 461h81.72v81.72h-81.72z"/></clipPath></defs><g clip-path="url(#a)" fill="none"><circle cx="496.67" cy="498.5" r="495.71" stroke="#000" stroke-width="1.914"/><circle cx="497.19" cy="501.66" r="411.6" stroke="#1d1d1b" stroke-width="6"/></g><text transform="rotate(82.75 -295.191 290.934)" font-size="34.455" font-family="WolpePegasus-Bold,Wolpe Pegasus" font-weight="700">P</text><text transform="rotate(80.62 -317.961 303.518)" font-size="34.455" font-family="WolpePegasus-Bold,Wolpe Pegasus" font-weight="700">l</text><text transform="rotate(79.2 -331.145 309.334)" font-size="34.455" font-family="WolpePegasus-Bold,Wolpe Pegasus" font-weight="700">u</text><text transform="rotate(77.08 -354.314 321.461)" font-size="34.455" font-family="WolpePegasus-Bold,Wolpe Pegasus" font-weight="700">t</text><text transform="rotate(75.67 -369.6 329.08)" font-size="34.455" font-family="WolpePegasus-Bold,Wolpe Pegasus" font-weight="700">o</text><text transform="rotate(74.27 -388.799 341.368)" font-size="34.455" font-family="WolpePegasus-Bold,Wolpe Pegasus" font-weight="700"></text><text transform="rotate(72.87 -403.274 347.143)" font-size="34.455" font-family="WolpePegasus-Bold,Wolpe Pegasus" font-weight="700"></text><text transform="rotate(71.48 -418.242 353.078)" font-size="34.455" font-family="WolpePegasus-Bold,Wolpe Pegasus" font-weight="700"></text><text transform="matrix(.33 .94 -.94 .33 53.36 649.23)" font-size="34.455" font-family="WolpePegasus-Bold,Wolpe Pegasus" font-weight="700"></text><text transform="rotate(63.86 -500.92 371.598)" font-size="34.455" font-family="WolpePegasus-Bold,Wolpe Pegasus" font-weight="700"></text><text transform="rotate(58 -621.331 459.018)" font-size="34.455" font-family="WolpePegasus-Bold,Wolpe Pegasus" font-weight="700"></text><text transform="rotate(56 -655.03 470.558)" font-size="34.455" font-family="WolpePegasus-Bold,Wolpe Pegasus" font-weight="700">N</text><text transform="rotate(53 -713.65 503.225)" font-size="34.455" font-family="WolpePegasus-Bold,Wolpe Pegasus" font-weight="700">e</text><text transform="matrix(.63 .78 -.78 .63 126.61 785)" font-size="34.455" font-family="WolpePegasus-Bold,Wolpe Pegasus" font-weight="700">p</text><text transform="rotate(49.5 -798.776 550.173)" font-size="34.455" font-family="WolpePegasus-Bold,Wolpe Pegasus" font-weight="700">t</text><text transform="matrix(.68 .74 -.74 .68 145.98 808.31)" font-size="34.455" font-family="WolpePegasus-Bold,Wolpe Pegasus" font-weight="700">u</text><text transform="rotate(45.38 -903.64 600.665)" font-size="34.455" font-family="WolpePegasus-Bold,Wolpe Pegasus" font-weight="700">n</text><text transform="matrix(.74 .68 -.68 .74 171.86 835.2)" font-size="34.455" font-family="WolpePegasus-Bold,Wolpe Pegasus" font-weight="700">e</text><text transform="rotate(41.26 -1031.867 666.63)" font-size="34.455" font-family="WolpePegasus-Bold,Wolpe Pegasus" font-weight="700"></text><text transform="rotate(37.11 -1174.542 706.707)" font-size="34.455" font-family="WolpePegasus-Bold,Wolpe Pegasus" font-weight="700"></text><text transform="rotate(32.23 -1421.972 868.834)" font-size="34.455" font-family="WolpePegasus-Bold,Wolpe Pegasus" font-weight="700"></text><text transform="rotate(31.53 -1461.955 892.128)" font-size="34.455" font-family="WolpePegasus-Bold,Wolpe Pegasus" font-weight="700"></text><text transform="rotate(30.12 -1544.086 927.972)" font-size="34.455" font-family="WolpePegasus-Bold,Wolpe Pegasus" font-weight="700"></text><text transform="rotate(29.42 -1589.89 954.216)" font-size="34.455" font-family="WolpePegasus-Bold,Wolpe Pegasus" font-weight="700"></text><text transform="rotate(28.71 -1638.196 982.034)" font-size="34.455" font-family="WolpePegasus-Bold,Wolpe Pegasus" font-weight="700"></text><text transform="rotate(27.3 -1737.955 1025.9)" font-size="34.455" font-family="WolpePegasus-Bold,Wolpe Pegasus" font-weight="700"></text><text transform="rotate(26.59 -1793.768 1057.64)" font-size="34.455" font-family="WolpePegasus-Bold,Wolpe Pegasus" font-weight="700"></text><text transform="rotate(24.46 -1973.214 1129.202)" font-size="34.455" font-family="WolpePegasus-Bold,Wolpe Pegasus" font-weight="700">U</text><text transform="matrix(.93 .38 -.38 .93 313.25 928.62)" font-size="34.455" font-family="WolpePegasus-Bold,Wolpe Pegasus" font-weight="700">r</text><text transform="rotate(20.17 -2461.887 1382.19)" font-size="34.455" font-family="WolpePegasus-Bold,Wolpe Pegasus" font-weight="700">a</text><text transform="rotate(18.02 -2791.773 1544.05)" font-size="34.455" font-family="WolpePegasus-Bold,Wolpe Pegasus" font-weight="700">n</text><text transform="rotate(15.86 -3213.409 1758.575)" font-size="34.455" font-family="WolpePegasus-Bold,Wolpe Pegasus" font-weight="700">u</text><text transform="rotate(14 -3705.262 2030.241)" font-size="34.455" font-family="WolpePegasus-Bold,Wolpe Pegasus" font-weight="700">s</text><text transform="rotate(10.06 -5224.692 2684.563)" font-size="34.455" font-family="WolpePegasus-Bold,Wolpe Pegasus" font-weight="700"></text><text transform="rotate(.64 -86183.768 39882.861)" font-size="34.455" font-family="WolpePegasus-Bold,Wolpe Pegasus" font-weight="700"></text><text transform="rotate(-6.54 8701.993 -4287.323)" font-size="34.455" font-family="WolpePegasus-Bold,Wolpe Pegasus" font-weight="700"></text><text transform="rotate(-7.96 7193.087 -3488.435)" font-size="34.455" font-family="WolpePegasus-Bold,Wolpe Pegasus" font-weight="700">S</text><text transform="rotate(-10.09 5722.424 -2749.827)" font-size="34.455" font-family="WolpePegasus-Bold,Wolpe Pegasus" font-weight="700">a</text><text transform="rotate(-11.5 5028.401 -2427.51)" font-size="34.455" font-family="WolpePegasus-Bold,Wolpe Pegasus" font-weight="700">t</text><text transform="rotate(-13.62 4296.478 -2023.762)" font-size="34.455" font-family="WolpePegasus-Bold,Wolpe Pegasus" font-weight="700">u</text><text transform="rotate(-15.73 3748.083 -1752.254)" font-size="34.455" font-family="WolpePegasus-Bold,Wolpe Pegasus" font-weight="700">r</text><text transform="rotate(-17.83 3332.102 -1531.078)" font-size="34.455" font-family="WolpePegasus-Bold,Wolpe Pegasus" font-weight="700">n</text><text transform="rotate(-18.52 3208.848 -1512.434)" font-size="34.455" font-family="WolpePegasus-Bold,Wolpe Pegasus" font-weight="700"></text><text transform="matrix(.94 -.33 .33 .94 647.18 940.73)" font-size="34.455" font-family="WolpePegasus-Bold,Wolpe Pegasus" font-weight="700"></text><text transform="rotate(-20 3005.695 -1393.936)" font-size="34.455" font-family="WolpePegasus-Bold,Wolpe Pegasus" font-weight="700"></text><text transform="rotate(-21.3 2818.437 -1290.914)" font-size="34.455" font-family="WolpePegasus-Bold,Wolpe Pegasus" font-weight="700"></text><text transform="rotate(-21.6 2764.173 -1283.913)" font-size="34.455" font-family="WolpePegasus-Bold,Wolpe Pegasus" font-weight="700"></text><text transform="matrix(.92 -.4 .4 .92 675.55 930.09)" font-size="34.455" font-family="WolpePegasus-Bold,Wolpe Pegasus" font-weight="700"></text><text transform="rotate(-24.07 2515.493 -1137.06)" font-size="34.455" font-family="WolpePegasus-Bold,Wolpe Pegasus" font-weight="700"></text><text transform="rotate(-24.76 2449.64 -1108.607)" font-size="34.455" font-family="WolpePegasus-Bold,Wolpe Pegasus" font-weight="700"></text><text transform="rotate(-26.14 2331.442 -1039.346)" font-size="34.455" font-family="WolpePegasus-Bold,Wolpe Pegasus" font-weight="700"></text><text transform="rotate(-26.82 2275.869 -1015.763)" font-size="34.455" font-family="WolpePegasus-Bold,Wolpe Pegasus" font-weight="700"></text><text transform="rotate(-27.51 2222.023 -992.927)" font-size="34.455" font-family="WolpePegasus-Bold,Wolpe Pegasus" font-weight="700"></text><text transform="rotate(-28.88 2126.48 -936.27)" font-size="34.455" font-family="WolpePegasus-Bold,Wolpe Pegasus" font-weight="700"></text><text transform="rotate(-29.57 2079.72 -916.83)" font-size="34.455" font-family="WolpePegasus-Bold,Wolpe Pegasus" font-weight="700"></text><text transform="matrix(.86 -.5 .5 .86 729.85 903.2)" font-size="34.455" font-family="WolpePegasus-Bold,Wolpe Pegasus" font-weight="700"></text><text transform="matrix(.85 -.52 .52 .85 736.4 899.43)" font-size="34.455" font-family="WolpePegasus-Bold,Wolpe Pegasus" font-weight="700"></text><text transform="rotate(-31.8 1931.384 -854.891)" font-size="34.455" font-family="WolpePegasus-Bold,Wolpe Pegasus" font-weight="700"></text><text transform="rotate(-32.9 1895.45 -825.959)" font-size="34.455" font-family="WolpePegasus-Bold,Wolpe Pegasus" font-weight="700"></text><text transform="rotate(-33.9 1825.806 -795.184)" font-size="34.455" font-family="WolpePegasus-Bold,Wolpe Pegasus" font-weight="700"></text><text transform="rotate(-35 1792.45 -770.647)" font-size="34.455" font-family="WolpePegasus-Bold,Wolpe Pegasus" font-weight="700"></text><text transform="rotate(-35.73 1747.088 -752.2)" font-size="34.455" font-family="WolpePegasus-Bold,Wolpe Pegasus" font-weight="700"></text><text transform="rotate(-37 1698.335 -724.305)" font-size="34.455" font-family="WolpePegasus-Bold,Wolpe Pegasus" font-weight="700">J</text><text transform="matrix(.78 -.63 .63 .78 783.74 867.14)" font-size="34.455" font-family="WolpePegasus-Bold,Wolpe Pegasus" font-weight="700">u</text><text transform="rotate(-41.19 1537.21 -634.305)" font-size="34.454" font-family="WolpePegasus-Bold,Wolpe Pegasus" font-weight="700">p</text><text transform="rotate(-43.25 1469.213 -603.137)" font-size="34.455" font-family="WolpePegasus-Bold,Wolpe Pegasus" font-weight="700">i</text><text transform="rotate(-44.62 1428.827 -580.045)" font-size="34.455" font-family="WolpePegasus-Bold,Wolpe Pegasus" font-weight="700">t</text><text transform="matrix(.69 -.72 .72 .69 827.25 828.73)" font-size="34.455" font-family="WolpePegasus-Bold,Wolpe Pegasus" font-weight="700">e</text><text transform="rotate(-48 1342.64 -534.04)" font-size="34.455" font-family="WolpePegasus-Bold,Wolpe Pegasus" font-weight="700">r</text><text transform="rotate(-52.89 1236.289 -449.144)" font-size="34.455" font-family="WolpePegasus-Bold,Wolpe Pegasus" font-weight="700"></text><text transform="rotate(-57.77 1125.163 -431.839)" font-size="34.455" font-family="WolpePegasus-Bold,Wolpe Pegasus" font-weight="700"></text><text transform="rotate(-58.47 1111.703 -427.16)" font-size="34.455" font-family="WolpePegasus-Bold,Wolpe Pegasus" font-weight="700"></text><text transform="rotate(-59.88 1089.273 -411.28)" font-size="34.455" font-family="WolpePegasus-Bold,Wolpe Pegasus" font-weight="700"></text><text transform="rotate(-60.58 1076.668 -406.834)" font-size="34.455" font-family="WolpePegasus-Bold,Wolpe Pegasus" font-weight="700"></text><text transform="rotate(-61.29 1064.121 -402.466)" font-size="34.455" font-family="WolpePegasus-Bold,Wolpe Pegasus" font-weight="700"></text><text transform="rotate(-62.7 1043.72 -387.694)" font-size="34.455" font-family="WolpePegasus-Bold,Wolpe Pegasus" font-weight="700"></text><text transform="rotate(-63.41 1031.797 -383.612)" font-size="34.455" font-family="WolpePegasus-Bold,Wolpe Pegasus" font-weight="700"></text><text transform="rotate(-64.12 1020.184 -379.548)" font-size="34.455" font-family="WolpePegasus-Bold,Wolpe Pegasus" font-weight="700"></text><text transform="rotate(-65.54 1001.452 -365.808)" font-size="34.455" font-family="WolpePegasus-Bold,Wolpe Pegasus" font-weight="700"></text><text transform="rotate(-66.25 990.359 -362.035)" font-size="34.455" font-family="WolpePegasus-Bold,Wolpe Pegasus" font-weight="700"></text><text transform="rotate(-68.39 965.988 -339.807)" font-size="34.455" font-family="WolpePegasus-Bold,Wolpe Pegasus" font-weight="700">M</text><text transform="rotate(-71.26 925.03 -326.835)" font-size="34.455" font-family="WolpePegasus-Bold,Wolpe Pegasus" font-weight="700">a</text><text transform="rotate(-73.42 899.67 -312.58)" font-size="34.455" font-family="WolpePegasus-Bold,Wolpe Pegasus" font-weight="700">r</text><text transform="rotate(-74.87 881.782 -305.398)" font-size="34.455" font-family="WolpePegasus-Bold,Wolpe Pegasus" font-weight="700">s</text><text transform="rotate(-79.21 845.776 -267.908)" font-size="34.455" font-family="WolpePegasus-Bold,Wolpe Pegasus" font-weight="700"></text><text transform="rotate(-89.36 762.22 -209.998)" font-size="34.455" font-family="WolpePegasus-Bold,Wolpe Pegasus" font-weight="700"></text><text transform="matrix(.09 -1 1 .09 48.17 476.31)" font-size="33.112" font-family="WolpePegasus-Bold,Wolpe Pegasus" font-weight="700">A</text><text transform="rotate(-82.74 282.53 197.984)" font-size="33.112" font-family="WolpePegasus-Bold,Wolpe Pegasus" font-weight="700">s</text><text transform="matrix(.16 -.99 .99 .16 52.03 440.82)" font-size="33.112" font-family="WolpePegasus-Bold,Wolpe Pegasus" font-weight="700">c</text><text transform="rotate(-79 286.272 181.276)" font-size="33.112" font-family="WolpePegasus-Bold,Wolpe Pegasus" font-weight="700">e</text><text transform="rotate(-76.96 288.036 170.308)" font-size="33.112" font-family="WolpePegasus-Bold,Wolpe Pegasus" font-weight="700">n</text><text transform="rotate(-74.79 288.962 157.353)" font-size="33.112" font-family="WolpePegasus-Bold,Wolpe Pegasus" font-weight="700">d</text><text transform="rotate(-72.61 289.893 143.637)" font-size="33.112" font-family="WolpePegasus-Bold,Wolpe Pegasus" font-weight="700">a</text><text transform="rotate(-70.44 292.198 131.108)" font-size="33.112" font-family="WolpePegasus-Bold,Wolpe Pegasus" font-weight="700">n</text><text transform="rotate(-68.26 293.355 116.073)" font-size="33.112" font-family="WolpePegasus-Bold,Wolpe Pegasus" font-weight="700">t</text><text transform="rotate(-63.92 308.509 103.276)" font-size="33.112" font-family="WolpePegasus-Bold,Wolpe Pegasus" font-weight="700"></text><text transform="rotate(-58.89 300.676 41.687)" font-size="33.112" font-family="WolpePegasus-Bold,Wolpe Pegasus" font-weight="700"></text><text transform="rotate(-58 300.96 32.966)" font-size="33.112" font-family="WolpePegasus-Bold,Wolpe Pegasus" font-weight="700"></text><text transform="rotate(-56.04 307.386 22.215)" font-size="33.112" font-family="WolpePegasus-Bold,Wolpe Pegasus" font-weight="700">D</text><text transform="rotate(-53 310.305 -8.285)" font-size="33.112" font-family="WolpePegasus-Bold,Wolpe Pegasus" font-weight="700">e</text><text transform="matrix(.62 -.79 .79 .62 140.02 232.52)" font-size="33.112" font-family="WolpePegasus-Bold,Wolpe Pegasus" font-weight="700">c</text><text transform="rotate(-49.67 313.793 -49.441)" font-size="33.112" font-family="WolpePegasus-Bold,Wolpe Pegasus" font-weight="700">e</text><text transform="rotate(-47.57 317.457 -74.499)" font-size="33.112" font-family="WolpePegasus-Bold,Wolpe Pegasus" font-weight="700">n</text><text transform="matrix(.7 -.71 .71 .7 170.39 196.86)" font-size="33.112" font-family="WolpePegasus-Bold,Wolpe Pegasus" font-weight="700">d</text><text transform="matrix(.73 -.69 .69 .73 183.25 183.86)" font-size="33.112" font-family="WolpePegasus-Bold,Wolpe Pegasus" font-weight="700">a</text><text transform="rotate(-41.31 326.954 -171.4)" font-size="33.112" font-family="WolpePegasus-Bold,Wolpe Pegasus" font-weight="700">n</text><text transform="matrix(.77 -.63 .63 .77 208.11 161.48)" font-size="33.112" font-family="WolpePegasus-Bold,Wolpe Pegasus" font-weight="700">t</text><text transform="rotate(-37.86 333.496 -238.627)" font-size="33.112" font-family="WolpePegasus-Bold,Wolpe Pegasus" font-weight="700"></text><text transform="rotate(-35.12 347.538 -276.052)" font-size="33.112" font-family="WolpePegasus-Bold,Wolpe Pegasus" font-weight="700"></text><text transform="rotate(-32.38 346.96 -373.335)" font-size="33.112" font-family="WolpePegasus-Bold,Wolpe Pegasus" font-weight="700"></text><text transform="rotate(-31.01 353.416 -406.762)" font-size="33.112" font-family="WolpePegasus-Bold,Wolpe Pegasus" font-weight="700"></text><text transform="matrix(.86 -.5 .5 .86 266.32 120.1)" font-size="33.112" font-family="WolpePegasus-Bold,Wolpe Pegasus" font-weight="700"></text><text transform="rotate(-29.64 356.299 -456.837)" font-size="33.112" font-family="WolpePegasus-Bold,Wolpe Pegasus" font-weight="700"></text><text transform="rotate(-28.27 363.508 -497.401)" font-size="33.112" font-family="WolpePegasus-Bold,Wolpe Pegasus" font-weight="700"></text><text transform="rotate(-27.1 365.16 -532.94)" font-size="33.112" font-family="WolpePegasus-Bold,Wolpe Pegasus" font-weight="700"></text><text transform="rotate(-26.91 367.438 -556.78)" font-size="33.112" font-family="WolpePegasus-Bold,Wolpe Pegasus" font-weight="700"></text><text transform="matrix(.9 -.43 .43 .9 298.29 102.72)" font-size="33.112" font-family="WolpePegasus-Bold,Wolpe Pegasus" font-weight="700"></text><text transform="rotate(-24.86 378.362 -641.624)" font-size="33.112" font-family="WolpePegasus-Bold,Wolpe Pegasus" font-weight="700"></text><text transform="rotate(-24.5 383.536 -675.443)" font-size="33.112" font-family="WolpePegasus-Bold,Wolpe Pegasus" font-weight="700"></text><text transform="rotate(-21.44 405.334 -793.078)" font-size="33.112" font-family="WolpePegasus-Bold,Wolpe Pegasus" font-weight="700">M</text><text transform="rotate(-18.7 423.478 -1008.77)" font-size="33.112" font-family="WolpePegasus-Bold,Wolpe Pegasus" font-weight="700">o</text><text transform="rotate(-16.64 444.337 -1200.397)" font-size="33.112" font-family="WolpePegasus-Bold,Wolpe Pegasus" font-weight="700">o</text><text transform="rotate(-14 489.708 -1516.995)" font-size="33.112" font-family="WolpePegasus-Bold,Wolpe Pegasus" font-weight="700">n</text><text transform="rotate(-9.72 592.602 -2296.067)" font-size="33.112" font-family="WolpePegasus-Bold,Wolpe Pegasus" font-weight="700"></text><text transform="rotate(.83 -3614.435 31091.934)" font-size="33.112" font-family="WolpePegasus-Bold,Wolpe Pegasus" font-weight="700"></text><text transform="rotate(8.1 -144.635 3973.117)" font-size="33.112" font-family="WolpePegasus-Bold,Wolpe Pegasus" font-weight="700"></text><text transform="rotate(8.1 -156.447 3757.296)" font-size="33.112" font-family="WolpePegasus-Bold,Wolpe Pegasus" font-weight="700"></text><text transform="matrix(.98 .18 -.18 .98 569.21 62.18)" font-size="33.112" font-family="WolpePegasus-Bold,Wolpe Pegasus" font-weight="700">S</text><text transform="rotate(12.31 -9.268 2749.44)" font-size="33.112" font-family="WolpePegasus-Bold,Wolpe Pegasus" font-weight="700">u</text><text transform="rotate(15.21 43.454 2294.38)" font-size="33.112" font-family="WolpePegasus-Bold,Wolpe Pegasus" font-weight="700">n</text><text transform="rotate(18.11 79.9 1984.646)" font-size="33.112" font-family="WolpePegasus-Bold,Wolpe Pegasus" font-weight="700"></text><text transform="rotate(27.1 153.548 1393.108)" font-size="33.112" font-family="WolpePegasus-Bold,Wolpe Pegasus" font-weight="700"></text><text transform="rotate(34.67 160.56 1267.105)" font-size="33.112" font-family="WolpePegasus-Bold,Wolpe Pegasus" font-weight="700"></text><text transform="matrix(.82 .58 -.58 .82 755.34 137.81)" font-size="33.112" font-family="WolpePegasus-Bold,Wolpe Pegasus" font-weight="700"></text><text transform="rotate(35.9 158.411 1239.224)" font-size="33.112" font-family="WolpePegasus-Bold,Wolpe Pegasus" font-weight="700"></text><text transform="rotate(38.92 176.88 1158.782)" font-size="33.112" font-family="WolpePegasus-Bold,Wolpe Pegasus" font-weight="700">M</text><text transform="rotate(41.73 178.802 1119.325)" font-size="33.112" font-family="WolpePegasus-Bold,Wolpe Pegasus" font-weight="700">e</text><text transform="rotate(43.83 183.257 1084.089)" font-size="33.112" font-family="WolpePegasus-Bold,Wolpe Pegasus" font-weight="700">r</text><text transform="rotate(45.22 184.632 1065.698)" font-size="33.112" font-family="WolpePegasus-Bold,Wolpe Pegasus" font-weight="700">c</text><text transform="rotate(47.3 189.374 1033.878)" font-size="33.112" font-family="WolpePegasus-Bold,Wolpe Pegasus" font-weight="700">u</text><text transform="rotate(49.38 191.598 1009.23)" font-size="33.112" font-family="WolpePegasus-Bold,Wolpe Pegasus" font-weight="700">r</text><text transform="matrix(.63 .77 -.77 .63 841.9 217.29)" font-size="33.112" font-family="WolpePegasus-Bold,Wolpe Pegasus" font-weight="700">y</text><text transform="rotate(56 210.446 915.137)" font-size="33.112" font-family="WolpePegasus-Bold,Wolpe Pegasus" font-weight="700"></text><text transform="rotate(61.04 201.444 898.186)" font-size="33.112" font-family="WolpePegasus-Bold,Wolpe Pegasus" font-weight="700"></text><text transform="rotate(62.6 204.238 879.855)" font-size="33.112" font-family="WolpePegasus-Bold,Wolpe Pegasus" font-weight="700"></text><text transform="rotate(63.09 204.173 880.282)" font-size="33.112" font-family="WolpePegasus-Bold,Wolpe Pegasus" font-weight="700"></text><text transform="rotate(63.9 203.236 873.575)" font-size="33.112" font-family="WolpePegasus-Bold,Wolpe Pegasus" font-weight="700"></text><text transform="rotate(65.14 206.658 863.407)" font-size="33.112" font-family="WolpePegasus-Bold,Wolpe Pegasus" font-weight="700"></text><text transform="rotate(65.8 207.468 861.4)" font-size="33.112" font-family="WolpePegasus-Bold,Wolpe Pegasus" font-weight="700"></text><text transform="rotate(67.88 212.401 838.634)" font-size="33.112" font-family="WolpePegasus-Bold,Wolpe Pegasus" font-weight="700">V</text><text transform="rotate(69.93 212.198 827.673)" font-size="33.112" font-family="WolpePegasus-Bold,Wolpe Pegasus" font-weight="700">e</text><text transform="rotate(72 214.435 814.831)" font-size="33.112" font-family="WolpePegasus-Bold,Wolpe Pegasus" font-weight="700">n</text><text transform="rotate(74.05 214.903 802.59)" font-size="33.112" font-family="WolpePegasus-Bold,Wolpe Pegasus" font-weight="700">u</text><text transform="rotate(76.1 215.814 792.053)" font-size="33.112" font-family="WolpePegasus-Bold,Wolpe Pegasus" font-weight="700">s</text><text transform="rotate(82.37 237.575 737.862)" font-size="33.112" font-family="WolpePegasus-Bold,Wolpe Pegasus" font-weight="700"></text><text transform="rotate(94.39 249.196 683.394)" font-size="33.112" font-family="WolpePegasus-Bold,Wolpe Pegasus" font-weight="700"></text><g clip-path="url(#a)" fill="none"><path stroke="#1d1d1b" stroke-width="6" d="M496.86 0v497.71"/><path stroke="#000" stroke-width=".334" d="M499.29 499.93V997M496.83 499.93V997M494.43 499.93V997"/></g><path fill="none" stroke="#000" stroke-width=".334" d="M991 504.46H3.37M991 502H3.37M991 499.6H3.37M770.89 84.59L229.72 917.92M768.83 83.25L227.66 916.58M766.82 81.94L225.65 915.28M494.1 503.32L61.51 258.58M495.31 501.19L62.72 256.44M496.49 499.1L63.9 254.35"/><path fill="none" stroke="#1d1d1b" stroke-width="2.229" d="M927.8 745.44l-78.79-44.58"/><path fill="none" stroke="#000" stroke-width=".334" d="M744.79 927.78L243.06 76.02M746.9 926.53L245.18 74.77M748.97 925.31L247.25 73.55"/><path fill="none" stroke="#1d1d1b" stroke-width="6" d="M59.49 729.78l439.45-228.76"/><g clip-path="url(#a)" fill="#1d1d1b"><path d="M659.33 93.42a20.43 20.43 0 10-20.4-20.78 20.4 20.4 0 0020.4 20.78m.07-44.81a24.53 24.53 0 11-24.57 24.54 24.54 24.54 0 0124.57-24.54"/><path d="M659.36 67.55A5.45 5.45 0 11653.9 73a5.46 5.46 0 015.46-5.44M417.73 30.51c8.62 4.47 13.28 11 13.69 19.66-.11 8.72-4.54 15.36-12.93 20.09 7.48.37 16.25-2.72 21.09-10.08a17.69 17.69 0 00-1.81-22.11c-5.1-5.54-11.84-7.94-20-7.56m2.85 42.62a30.87 30.87 0 01-8.11-.84 1.51 1.51 0 01-1.34-1.29 1.41 1.41 0 011.16-1.42 24.79 24.79 0 006.84-3.22A20.09 20.09 0 00427.26 56a16.83 16.83 0 00.79-7.2 18.52 18.52 0 00-6.15-11.89 23.12 23.12 0 00-10-5.36c-.74-.19-1.28-.53-1.39-1.25a1.32 1.32 0 01.95-1.47c1-.28 2-.53 3-.73a26.57 26.57 0 015-.49 28.39 28.39 0 0116.45 4.85 22.15 22.15 0 019.29 12.69 19.24 19.24 0 01.61 6.45 20.83 20.83 0 01-5.79 13 26.36 26.36 0 01-12.23 7.4 29.12 29.12 0 01-7.21 1.14M875.91 255.08a9.74 9.74 0 10-9.74-10.21 9.71 9.71 0 009.72 10.21m1.54 10.25v2.31a1.16 1.16 0 01-1.16 1.16h-.87a1 1 0 01-1-1v-2.45a.07.07 0 00-.08-.07h-2.43a1.08 1.08 0 01-1.08-1.08v-.74a1.24 1.24 0 011.24-1.24h2.24a.08.08 0 00.08-.08v-4a.07.07 0 00-.07-.07c-5.61-1.06-9.3-4.23-10.85-9.78-1.19-6.37 1.16-11.1 6.58-14.41a.08.08 0 000-.13 11 11 0 01-4.86-7.18 1 1 0 01.88-1.18l.76-.07a1.25 1.25 0 011.41.94 7.83 7.83 0 002.68 4.32 8 8 0 0012.85-4.22 1.39 1.39 0 011.48-1h.39a1.24 1.24 0 011.14 1.52 11 11 0 01-4.87 6.91.08.08 0 000 .13c5.42 3.4 7.74 8.17 6.43 14.58-1.61 5.42-5.26 8.52-10.79 9.55a.09.09 0 00-.06.08v3.94a.08.08 0 00.08.08h2.07a1.37 1.37 0 011.37 1.37v.3a1.39 1.39 0 01-1.39 1.39h-2.08a.08.08 0 00-.07.08M963.62 439.82a13.11 13.11 0 10-13.27 13.06 13.08 13.08 0 0013.27-13.06m-21 27.83V464a.46.46 0 01.46-.45h4.87a.46.46 0 00.45-.46v-4.92a1.41 1.41 0 00-1.14-1.39 17.29 17.29 0 116.23.05 1.12 1.12 0 00-.91 1.1V463a.45.45 0 00.45.45h4.88a.46.46 0 01.46.45v3.69h-5.41c-.3 0-.41.08-.4.4v5.8c0 .55-4.13.5-4.13 0v-1-4.72c0-.36-.12-.44-.45-.43M942.73 582.59a13.41 13.41 0 0013.44-13.66 13.46 13.46 0 10-13.45 13.66m19.86-36.31h-6.37v-4.18h13.56v13.54h-4.16v-6.24l-8.92 8.91c.24.35.54.75.81 1.17a16.85 16.85 0 012.79 7.79 17.35 17.35 0 01-4.25 13.47 16.85 16.85 0 01-10.1 5.77 17.24 17.24 0 01-14.69-4 16.88 16.88 0 01-5.82-9.86 17.24 17.24 0 013.37-14.4 17 17 0 0110.11-6.38 17.32 17.32 0 0114.42 3.1c.19.14.32.25.54 0 2.82-2.85 5.66-5.67 8.49-8.51l.23-.25M846.33 783.67v-1.06a1.22 1.22 0 011.25-1.19h.63a11.19 11.19 0 006.57-2.37 16.78 16.78 0 005.79-8.66 14.65 14.65 0 00.65-5.8 7.23 7.23 0 00-2.05-4.66 6 6 0 00-4.31-1.69 7.07 7.07 0 00-6.4 4.92 5.19 5.19 0 00.19 3 1.94 1.94 0 00.41.66 2 2 0 01.56 1.46v1a1 1 0 01-1.33.94c-2.24-.89-3.14-3-3.28-5.55a8.49 8.49 0 011.8-5.61 10.28 10.28 0 016.32-4 9.17 9.17 0 017.77 1.89 10 10 0 013.56 6.31 15.06 15.06 0 01.18 4 20.73 20.73 0 01-1.93 7 20.43 20.43 0 01-4 5.85c-.41.41-.84.79-1.29 1.19a.15.15 0 00.09.26l10.58.18a.14.14 0 00.15-.14l.42-24a1.81 1.81 0 011.84-1.78 1.58 1.58 0 011.55 1.61l-.42 24.26a.15.15 0 00.14.15l3.32.06a1 1 0 01.93 1 2.42 2.42 0 01-2.46 2.38h-1.84a.15.15 0 00-.15.15l-.11 6.2a1.46 1.46 0 01-1.49 1.43h-.56a1.35 1.35 0 01-1.33-1.37l.11-6.3a.15.15 0 00-.14-.15l-20.53-.36a1.15 1.15 0 01-1.13-1.17M667.33 933.93l-2.8.05a.42.42 0 01-.43-.41l-.41-23.83a.42.42 0 00-.43-.41h-2.84a.43.43 0 01-.43-.41v-2.41a.43.43 0 01.41-.43h2.83a.41.41 0 00.41-.42v-2.7a.43.43 0 01.41-.43h2.41a.41.41 0 01.42.41v2.67a.42.42 0 00.43.41l5.24-.09a.41.41 0 01.42.41v2.44a.41.41 0 01-.41.42l-5.22.09a.41.41 0 00-.4.43l.07 4.27a.42.42 0 00.68.32 11.73 11.73 0 012.68-1.6 11.26 11.26 0 013.58-1 7.62 7.62 0 015.3 1.13 8.77 8.77 0 013.26 4.26 12.74 12.74 0 01.89 5.56 17.87 17.87 0 01-4.75 11.34 9.75 9.75 0 00-2.27 3.59 4 4 0 00-.21 1.91 1.84 1.84 0 001.54 1.31.71.71 0 00.42-.14c.43-.34.84-.71 1.25-1.08a4.91 4.91 0 00.43-.48l1.46 1.41a1.25 1.25 0 010 1.78 5.8 5.8 0 01-2.86 1.72 4.39 4.39 0 01-3.42-.89 4.69 4.69 0 01-2.11-4.48 10.43 10.43 0 012.72-6.12 20.6 20.6 0 002.61-3.4 16 16 0 001.86-5.75 10.07 10.07 0 00-1.15-6.28 4.09 4.09 0 00-3.16-2.24 7.92 7.92 0 00-3.44.46 9.37 9.37 0 00-4.83 4.2 2.8 2.8 0 00-.4 1.62q.13 6.25.23 12.5v.31M425.91 967.28a3.8 3.8 0 10-.16-7.6 3.8 3.8 0 00.16 7.6m-2.26-20.87l-3.79.07a.17.17 0 00-.17.14 12.32 12.32 0 01-6.23 9 12 12 0 01-5 1.53.77.77 0 01-.84-.75v-2.29a.75.75 0 01.66-.75 8.59 8.59 0 007.71-9.18 8.62 8.62 0 00-7.93-7.91.84.84 0 01-.76-.81v-2.26a.71.71 0 01.75-.72 12.12 12.12 0 017.32 2.84 12.24 12.24 0 014.28 7.24.19.19 0 00.18.15l3.62-.07a.17.17 0 00.18-.18l-.14-8.34a1 1 0 011-1h1.94a.88.88 0 01.9.87l.15 8.43a.18.18 0 00.18.18l3.63-.07a.16.16 0 00.17-.15 12.34 12.34 0 015.5-8.52 12.17 12.17 0 014.22-1.75 2 2 0 012.33 1.89 1.83 1.83 0 01-1.49 1.83 8.39 8.39 0 00-5.63 4 8.11 8.11 0 00-1.21 5.26 8.59 8.59 0 007 7.61 2 2 0 011.66 1.9v.23a1.64 1.64 0 01-1.84 1.67 12 12 0 01-6.22-2.74 12.24 12.24 0 01-4.27-7.23.18.18 0 00-.18-.15l-3.81.07v.3l.15 9.16c0 .25.09.32.31.39a7.3 7.3 0 015.43 6.09 7.61 7.61 0 01-15 2.58 7.93 7.93 0 015.56-8.71M219.75 871.45c-1.22-.16-2.4-.25-3.56-.46a9.91 9.91 0 01-4.9-2.27 11 11 0 01-3.18-5.35 26.06 26.06 0 01-.91-7.66c0-2.08.17-4.16.27-6.24 0-.35 0-.71.09-1.14l-1.78 1.48a.68.68 0 01-1-.13l-1.12-1.52a.8.8 0 01.12-1.08l5.33-4.46a.91.91 0 011.34.18l4.16 5.86a.73.73 0 01-.13 1l-1.48 1.19a.71.71 0 01-1-.14l-1.24-1.71c-.07.91-.17 1.7-.19 2.5-.06 1.87-.14 3.75-.1 5.62a18.52 18.52 0 001.07 6.21 6.21 6.21 0 004.67 4.15c1.07.24 2.19.3 3.29.44h.19l-.27-15.17-1.37 1.4a.93.93 0 01-1.34 0l-1.15-1.15a.84.84 0 010-1.13l4.71-5.4a.74.74 0 011.12 0l5 5.17a.75.75 0 010 1l-1.34 1.36a.66.66 0 01-1 0l-1.24-1.35-.12.05.27 15.13c.53-.05 1.06-.1 1.59-.17a10.69 10.69 0 003.08-.85 6.47 6.47 0 003.46-4.37 16.13 16.13 0 00.65-4.42c0-1.74 0-3.49-.1-5.23a37.1 37.1 0 00-.45-3.84c-.41.6-.81 1.2-1.23 1.8a.68.68 0 01-1 .17l-1.52-1.18a.73.73 0 01-.15-1l4.2-6.19a.61.61 0 01.9-.15l5.78 4.6a.7.7 0 01.13 1l-1.13 1.65a.61.61 0 01-.9.14l-1.75-1.39c.12 1 .13 1.05.32 3.14.16 1.69.26 3.38.26 5.08a24.6 24.6 0 01-.86 6.94 9.75 9.75 0 01-7 7.1 18.1 18.1 0 01-3.93.63h-.24c0 1.63.06 3.25.09 4.89l5.25-.09a.76.76 0 01.74.76v2a.7.7 0 01-.66.73l-5.32.09v.48c0 1.92.06 3.62.1 5.54a.61.61 0 01-.54.6h-2.14a.64.64 0 01-.58-.62c0-1.93-.06-3.61-.1-5.55v-.41l-5.12.09a.92.92 0 01-.91-.95v-1.53a.92.92 0 01.86-1l5.11-.09zM78.67 676.43h-6.7c-1.2-.06-1.2-.06-1.17 1.18v8h-3.51c-.56 0-.56 0-.56-.54v-8.67h-7.88a1.18 1.18 0 01-1.17-1.18v-1.67a1.17 1.17 0 011.17-1.18h7.85c.09 0 .06-.35.06-.47v-7.82c0-.35-.08-.43-.43-.48a18.28 18.28 0 01-10.06-4.71 18.56 18.56 0 01-5.84-10.42 10.53 10.53 0 01-.3-2.76c0-.84.38-.74.4-.83h2.58a1.05 1.05 0 011 1 14.65 14.65 0 006 11 14.12 14.12 0 009.73 2.83A14.83 14.83 0 0083.42 646a1.18 1.18 0 011.17-1.09h1.65a1.18 1.18 0 011.17 1.27 18.83 18.83 0 01-15.64 17.38 1.16 1.16 0 00-.94 1.15v6.47c0 1.3 0 1.18 1.17 1.18h6.67a1.18 1.18 0 011.17 1.19v1.69a1.18 1.18 0 01-1.17 1.19"/><path d="M68.85 652.61a7.79 7.79 0 10-7.68-7.79 7.75 7.75 0 007.69 7.79m-11.74-7.76a11.76 11.76 0 1123.51.06 11.76 11.76 0 11-23.51-.06M80.91 327.11v-31a.69.69 0 00-1.19-.51l-12.08 12.62a.68.68 0 01-1 0l-.88-.79a.75.75 0 010-1.06l15.88-16.76a.67.67 0 011 0l15.91 16.78a.76.76 0 010 1.07l-.84.75a.68.68 0 01-1 0l-12-12.63a.69.69 0 00-1.19.51v31a.71.71 0 01-.69.73h-1.22a.72.72 0 01-.7-.73M234.36 108v31a.69.69 0 001.19.51l12.08-12.61a.69.69 0 01.95 0l.88.79a.76.76 0 010 1.07l-15.88 16.75a.67.67 0 01-1 0l-15.91-16.78a.75.75 0 010-1.06l.84-.76a.69.69 0 01.95 0c4 4.21 8 8.41 12.05 12.63a.69.69 0 001.19-.51V108a.71.71 0 01.69-.73h1.19a.71.71 0 01.69.73"/></g><path fill="none" stroke="#1d1d1b" stroke-width="6" d="M925.05 744.29L494.46 500.67"/><path fill="none" stroke="#000" stroke-width=".334" d="M497.23 500.03l438.84-228.44M498.37 502.21L937.2 273.77M499.47 504.34L938.31 275.9"/><g clip-path="url(#b)"><path d="M497.17 539a38.18 38.18 0 10-38.18-38.18A38.17 38.17 0 00497.17 539" fill="#fff"/><circle cx="497.12" cy="500.86" r="38.17" fill="none" stroke="#1d1d1b" stroke-width="2"/></g></svg>